<svg xmlns="http://www.w3.org/2000/svg" xmlns:xlink="http://www.w3.org/1999/xlink" width="420mm" height="180mm" viewBox="0 0 420 180"><defs><linearGradient id="a"><stop offset="0" style="stop-color:#000;stop-opacity:.976834"/><stop offset="1" style="stop-color:#000;stop-opacity:.45945945"/></linearGradient><linearGradient xlink:href="#a" id="b" x1="58.779167" x2="249.28128" y1="-3.1625018" y2="189.06874" gradientUnits="userSpaceOnUse"/></defs><path d="M0 87 30-3l30 30h30l38.935 38.935 14.47-50.98L210-3l38.385 38.385L270-3l150 180H90Z" style="opacity:.21600001;fill:url(#b);fill-opacity:1;stroke:none;stroke-width:2;stroke-linecap:butt;stroke-linejoin:miter;stroke-miterlimit:4;stroke-dasharray:none;stroke-opacity:1" transform="translate(0 3)"/><path d="M0 87h60V57H30V-3H0Z" style="opacity:1;fill:#d37a1d;fill-opacity:1;stroke:none;stroke-width:2;stroke-linecap:butt;stroke-linejoin:miter;stroke-miterlimit:4;stroke-dasharray:none;stroke-opacity:1" transform="translate(0 3)"/><path d="M27-90h120v30H27z" style="opacity:1;fill:#c5921f;fill-opacity:1;stroke:none;stroke-width:1.88264012;stroke-linecap:butt;stroke-linejoin:miter;stroke-miterlimit:4;stroke-dasharray:none;stroke-opacity:1" transform="rotate(90 -1.5 1.5)"/><path d="M120-3h60v30h-30v60h-30z" style="opacity:1;fill:#d98b33;fill-opacity:1;stroke:none;stroke-width:2;stroke-linecap:butt;stroke-linejoin:miter;stroke-miterlimit:4;stroke-dasharray:none;stroke-opacity:1" transform="translate(0 3)"/><path d="M120 147V87h30v30h60v30z" style="opacity:1;fill:#e2a445;fill-opacity:1;stroke:none;stroke-width:2;stroke-linecap:butt;stroke-linejoin:miter;stroke-miterlimit:4;stroke-dasharray:none;stroke-opacity:1" transform="translate(0 3)"/><path d="M-117 180H3v30h-120z" style="opacity:1;fill:#e0be40;fill-opacity:1;stroke:none;stroke-width:1.88264012;stroke-linecap:butt;stroke-linejoin:miter;stroke-miterlimit:4;stroke-dasharray:none;stroke-opacity:1" transform="rotate(-90 1.5 1.5)"/><path d="M-117 240H3v30h-120z" style="opacity:1;fill:#ebd82b;fill-opacity:1;stroke:none;stroke-width:1.88264012;stroke-linecap:butt;stroke-linejoin:miter;stroke-miterlimit:4;stroke-dasharray:none;stroke-opacity:1" transform="rotate(-90 1.5 1.5)"/><path d="M240 117h120v30H240z" style="opacity:1;fill:#dee45f;fill-opacity:1;stroke:none;stroke-width:1.88264012;stroke-linecap:butt;stroke-linejoin:miter;stroke-miterlimit:4;stroke-dasharray:none;stroke-opacity:1" transform="translate(0 3)"/></svg>