<svg xmlns="http://www.w3.org/2000/svg" xmlns:xlink="http://www.w3.org/1999/xlink" width="570mm" height="180mm" viewBox="0 0 570 180"><defs><linearGradient id="a"><stop offset="0" style="stop-color:#000;stop-opacity:.976834"/><stop offset="1" style="stop-color:#000;stop-opacity:.45945945"/></linearGradient><linearGradient xlink:href="#a" id="b" x1="-1e-006" x2="534.72308" y1="-3.000015" y2="170.96153" gradientUnits="userSpaceOnUse"/></defs><path d="M0 147 16.09 12.736 60-3l30 30 49.194-12.767L210-3l40.004 40.004 13.642-25.558L390-3l180 180H30Z" style="opacity:.21199999;fill:url(#b);fill-opacity:1;stroke:none;stroke-width:20.26499939;stroke-linecap:butt;stroke-linejoin:miter;stroke-miterlimit:4;stroke-dasharray:none;stroke-opacity:1" transform="translate(0 3)"/><path d="M0 147V87h30v30h60v30z" style="opacity:1;fill:#7b78ed;fill-opacity:1;stroke:none;stroke-width:2;stroke-linecap:butt;stroke-linejoin:miter;stroke-miterlimit:4;stroke-dasharray:none;stroke-opacity:1" transform="translate(0 3)"/><path d="M90-3h120v30H90z" style="opacity:1;fill:#564ac2;fill-opacity:1;stroke:none;stroke-width:1.88264012;stroke-linecap:butt;stroke-linejoin:miter;stroke-miterlimit:4;stroke-dasharray:none;stroke-opacity:1" transform="translate(0 3)"/><path d="M330-3v60h-30V27h-60V-3Z" style="opacity:1;fill:#5345cf;fill-opacity:1;stroke:none;stroke-width:2;stroke-linecap:butt;stroke-linejoin:miter;stroke-miterlimit:4;stroke-dasharray:none;stroke-opacity:1" transform="translate(0 3)"/><path d="M390-3h-60v30h30v60h30z" style="opacity:1;fill:#4769d0;fill-opacity:1;stroke:none;stroke-width:2;stroke-linecap:butt;stroke-linejoin:miter;stroke-miterlimit:4;stroke-dasharray:none;stroke-opacity:1" transform="translate(0 3)"/><path d="M-147 120h120v30h-120z" style="opacity:1;fill:#6975ce;fill-opacity:1;stroke:none;stroke-width:1.88264012;stroke-linecap:butt;stroke-linejoin:miter;stroke-miterlimit:4;stroke-dasharray:none;stroke-opacity:1" transform="rotate(-90 1.5 1.5)"/><path d="M0-3h60v30H30v60H0z" style="opacity:1;fill:#5177d4;fill-opacity:1;stroke:none;stroke-width:2;stroke-linecap:butt;stroke-linejoin:miter;stroke-miterlimit:4;stroke-dasharray:none;stroke-opacity:1" transform="translate(0 3)"/><path d="M-147 240h120v30h-120z" style="opacity:1;fill:#526ede;fill-opacity:1;stroke:none;stroke-width:1.88264012;stroke-linecap:butt;stroke-linejoin:miter;stroke-miterlimit:4;stroke-dasharray:none;stroke-opacity:1" transform="rotate(-90 1.5 1.5)"/></svg>