<svg xmlns="http://www.w3.org/2000/svg" xmlns:xlink="http://www.w3.org/1999/xlink" width="570mm" height="180mm" viewBox="0 0 570 180"><defs><linearGradient id="a"><stop offset="0" style="stop-color:#000;stop-opacity:.976834"/><stop offset="1" style="stop-color:#000;stop-opacity:.45945945"/></linearGradient><linearGradient xlink:href="#a" id="b" x1="29.999998" x2="524.06647" y1="-3.0000229" y2="171.93823" gradientUnits="userSpaceOnUse"/></defs><path d="M0 147 30-3l90 90 18.071-70.522L210-3l30 30L360-3l180 180H30Z" style="opacity:.216;fill:url(#b);fill-opacity:1;stroke:none;stroke-width:20.26499939;stroke-linecap:butt;stroke-linejoin:miter;stroke-miterlimit:4;stroke-dasharray:none;stroke-opacity:1" transform="translate(0 3)"/><path d="M240 147V87h-30v30h-60v30z" style="opacity:1;fill:#8bb8dc;fill-opacity:1;stroke:none;stroke-width:2;stroke-linecap:butt;stroke-linejoin:miter;stroke-miterlimit:4;stroke-dasharray:none;stroke-opacity:1" transform="translate(0 3)"/><path d="M0 117h120v30H0z" style="opacity:1;fill:#6eb1a4;fill-opacity:1;stroke:none;stroke-width:1.88264012;stroke-linecap:butt;stroke-linejoin:miter;stroke-miterlimit:4;stroke-dasharray:none;stroke-opacity:1" transform="translate(0 3)"/><path d="M-117 0H3v30h-120z" style="opacity:1;fill:#71a5bf;fill-opacity:1;stroke:none;stroke-width:1.88264012;stroke-linecap:butt;stroke-linejoin:miter;stroke-miterlimit:4;stroke-dasharray:none;stroke-opacity:1" transform="rotate(-90 1.5 1.5)"/><path d="M120-3v60h30V27h60V-3Z" style="opacity:1;fill:#70aab5;fill-opacity:1;stroke:none;stroke-width:2;stroke-linecap:butt;stroke-linejoin:miter;stroke-miterlimit:4;stroke-dasharray:none;stroke-opacity:1" transform="translate(0 3)"/><path d="M120 57h120v30H120z" style="opacity:1;fill:#71acbf;fill-opacity:1;stroke:none;stroke-width:1.88264012;stroke-linecap:butt;stroke-linejoin:miter;stroke-miterlimit:4;stroke-dasharray:none;stroke-opacity:1" transform="translate(0 3)"/><path d="M240-3h120v30H240z" style="opacity:1;fill:#6eb3a4;fill-opacity:1;stroke:none;stroke-width:1.88264012;stroke-linecap:butt;stroke-linejoin:miter;stroke-miterlimit:4;stroke-dasharray:none;stroke-opacity:1" transform="translate(0 3)"/><path d="M-147 270h120v30h-120z" style="opacity:1;fill:#78c3bf;fill-opacity:1;stroke:none;stroke-width:1.88264012;stroke-linecap:butt;stroke-linejoin:miter;stroke-miterlimit:4;stroke-dasharray:none;stroke-opacity:1" transform="rotate(-90 1.5 1.5)"/></svg>