<svg xmlns="http://www.w3.org/2000/svg" xmlns:xlink="http://www.w3.org/1999/xlink" width="510mm" height="180mm" viewBox="0 0 510 180"><defs><linearGradient id="a"><stop offset="0" style="stop-color:#000;stop-opacity:.976834"/><stop offset="1" style="stop-color:#000;stop-opacity:.45945945"/></linearGradient><linearGradient xlink:href="#a" id="b" x1="29.999994" x2="510" y1="26.999998" y2="176.99998" gradientUnits="userSpaceOnUse"/></defs><path d="M0 147 30 27l90-30 38.232 38.232L180-3l60 60 30-30 30 30 30-60 180 180H30Z" style="opacity:.212;fill:url(#b);fill-opacity:1;stroke:none;stroke-width:20.265;stroke-linecap:butt;stroke-linejoin:miter;stroke-miterlimit:4;stroke-dasharray:none;stroke-opacity:1" transform="translate(0 3)"/><path d="M120-3v60H90V27H30V-3z" style="opacity:1;fill:#b889dc;fill-opacity:1;stroke:none;stroke-width:2;stroke-linecap:butt;stroke-linejoin:miter;stroke-miterlimit:4;stroke-dasharray:none;stroke-opacity:1" transform="translate(0 3)"/><path d="M150 87h60V57h-30V-3h-30z" style="opacity:1;fill:#a571a3;fill-opacity:1;stroke:none;stroke-width:2;stroke-linecap:butt;stroke-linejoin:miter;stroke-miterlimit:4;stroke-dasharray:none;stroke-opacity:1" transform="translate(0 3)"/><path d="M0 27h30v120H0z" style="fill:#a18aa7;fill-opacity:1;stroke-width:.2623" transform="translate(0 3)"/><path d="M300-3h30v120h-30z" style="fill:#a06bbd;fill-opacity:1;stroke-width:.2623" transform="translate(0 3)"/><path d="M117-270h30v120h-30z" style="fill:#9c7aae;fill-opacity:1;stroke-width:.2623" transform="rotate(90 -1.5 1.5)"/><path d="M117-420h30v120h-30z" style="fill:#a38bca;fill-opacity:1;stroke-width:.2623" transform="rotate(90 -1.5 1.5)"/><path d="M30 57v30h30v30h60V87H90V57Z" style="fill:#ab8b99;fill-opacity:1;stroke-width:.264583" transform="translate(0 3)"/><path d="M210 57v30h30v30h30V27h-30v30z" style="fill:#a584b5;fill-opacity:1;stroke-width:.264583" transform="translate(0 3)"/></svg>