<svg xmlns="http://www.w3.org/2000/svg" xmlns:xlink="http://www.w3.org/1999/xlink" width="450mm" height="180mm" viewBox="0 0 450 180"><defs><linearGradient id="a"><stop offset="0" style="stop-color:#000;stop-opacity:.976834"/><stop offset="1" style="stop-color:#000;stop-opacity:.45945945"/></linearGradient><linearGradient xlink:href="#a" id="b" x1="-1e-006" x2="454.65833" y1="89.645828" y2="89.645828" gradientUnits="userSpaceOnUse"/></defs><path d="m0 117 41.54-22.02L30 57 0 27 41.01 8.99 60-3l95.057 95.057 11.895-76.982L270-3l180 180H60Z" style="opacity:.32000002;fill:url(#b);fill-opacity:1;stroke:none;stroke-width:20.26499939;stroke-linecap:butt;stroke-linejoin:miter;stroke-miterlimit:4;stroke-dasharray:none;stroke-opacity:1" transform="translate(0 3)"/><path d="M0 87h120v30H0z" style="opacity:1;fill:#695aa5;fill-opacity:1;stroke:none;stroke-width:1.88264012;stroke-linecap:butt;stroke-linejoin:miter;stroke-miterlimit:4;stroke-dasharray:none;stroke-opacity:1" transform="translate(0 3)"/><path d="M150-3h120v30H150z" style="opacity:1;fill:#6c4d7e;fill-opacity:1;stroke:none;stroke-width:1.88264012;stroke-linecap:butt;stroke-linejoin:miter;stroke-miterlimit:4;stroke-dasharray:none;stroke-opacity:1" transform="translate(0 3)"/><path d="M270 87V27h-30v30h-60v30z" style="opacity:1;fill:#714882;fill-opacity:1;stroke:none;stroke-width:2;stroke-linecap:butt;stroke-linejoin:miter;stroke-miterlimit:4;stroke-dasharray:none;stroke-opacity:1" transform="translate(0 3)"/><path d="M27-180h120v30H27z" style="opacity:1;fill:#6d4f80;fill-opacity:1;stroke:none;stroke-width:1.88264012;stroke-linecap:butt;stroke-linejoin:miter;stroke-miterlimit:4;stroke-dasharray:none;stroke-opacity:1" transform="rotate(90 -1.5 1.5)"/><path d="M60-3H0v30h30v60h30z" style="opacity:1;fill:#4b6294;fill-opacity:1;stroke:none;stroke-width:2;stroke-linecap:butt;stroke-linejoin:miter;stroke-miterlimit:4;stroke-dasharray:none;stroke-opacity:1" transform="translate(0 3)"/></svg>