<svg xmlns="http://www.w3.org/2000/svg" xmlns:xlink="http://www.w3.org/1999/xlink" width="540mm" height="180mm" viewBox="0 0 540 180"><defs><linearGradient id="a"><stop offset="0" style="stop-color:#000;stop-opacity:.976834"/><stop offset="1" style="stop-color:#000;stop-opacity:.45945945"/></linearGradient><linearGradient xlink:href="#a" id="b" x1="-1e-006" x2="579.03333" y1="106.51666" y2="106.51666" gradientUnits="userSpaceOnUse"/></defs><path d="M0 57 30-3l41.266 41.266 29.805-8.11L90-3h30l47.727 47.727 10.338-35.473L210-3l41.224 41.224 35.584-26.853 59.002 1.587L360-3l180 180H120Z" style="opacity:.32000002;fill:url(#b);fill-opacity:1;stroke:none;stroke-width:20.26499939;stroke-linecap:butt;stroke-linejoin:miter;stroke-miterlimit:4;stroke-dasharray:none;stroke-opacity:1" transform="translate(0 3)"/><path d="M-3-120h120v30H-3z" style="opacity:1;fill:#69cc4e;fill-opacity:1;stroke:none;stroke-width:1.88264012;stroke-linecap:butt;stroke-linejoin:miter;stroke-miterlimit:4;stroke-dasharray:none;stroke-opacity:1" transform="rotate(90 -1.5 1.5)"/><path d="M360-3h-60v30h30v60h30z" style="opacity:1;fill:#71b361;fill-opacity:1;stroke:none;stroke-width:2;stroke-linecap:butt;stroke-linejoin:miter;stroke-miterlimit:4;stroke-dasharray:none;stroke-opacity:1" transform="translate(0 3)"/><path d="M0 57V-3h30v30h60v30z" style="opacity:1;fill:#4baf4d;fill-opacity:1;stroke:none;stroke-width:2;stroke-linecap:butt;stroke-linejoin:miter;stroke-miterlimit:4;stroke-dasharray:none;stroke-opacity:1" transform="translate(0 3)"/><path d="M150-3h60v30h-30v60h-30z" style="opacity:1;fill:#4bad2a;fill-opacity:1;stroke:none;stroke-width:2;stroke-linecap:butt;stroke-linejoin:miter;stroke-miterlimit:4;stroke-dasharray:none;stroke-opacity:1" transform="translate(0 3)"/><path d="M150 147V87h30v30h60v30Z" style="opacity:1;fill:#4baf4f;fill-opacity:1;stroke:none;stroke-width:2;stroke-linecap:butt;stroke-linejoin:miter;stroke-miterlimit:4;stroke-dasharray:none;stroke-opacity:1" transform="translate(0 3)"/><path d="M240-3h60v30h-30v60h-30Z" style="opacity:1;fill:#4ba644;fill-opacity:1;stroke:none;stroke-width:2;stroke-linecap:butt;stroke-linejoin:miter;stroke-miterlimit:4;stroke-dasharray:none;stroke-opacity:1" transform="translate(0 3)"/></svg>