<svg xmlns="http://www.w3.org/2000/svg" xmlns:xlink="http://www.w3.org/1999/xlink" width="570.83502mm" height="180mm" viewBox="0 0 570.83502 180"><defs><linearGradient id="a"><stop offset="0" style="stop-color:#000;stop-opacity:.976834"/><stop offset="1" style="stop-color:#000;stop-opacity:.45945945"/></linearGradient><linearGradient xlink:href="#a" id="b" x1="79.904167" x2="549.66833" y1="4.4499922" y2="168.49165" gradientUnits="userSpaceOnUse"/></defs><path d="M0 57 30-3l42.985 42.985 32.848-9.564L120-3l42.435 42.435L180-3l131.233 131.233 3.092-109.983L390-3l180.835 180H120Z" style="opacity:.32000002;fill:url(#b);fill-opacity:1;stroke:none;stroke-width:1.32291663;stroke-linecap:butt;stroke-linejoin:miter;stroke-miterlimit:4;stroke-dasharray:none;stroke-opacity:1" transform="translate(0 3)"/><path d="M-3-120h120v30H-3z" style="opacity:1;fill:#cc4e4e;fill-opacity:1;stroke:none;stroke-width:1.88264012;stroke-linecap:butt;stroke-linejoin:miter;stroke-miterlimit:4;stroke-dasharray:none;stroke-opacity:1" transform="rotate(90 -1.5 1.5)"/><path d="M300-3v60h30V27h60V-3Z" style="opacity:1;fill:#cf5845;fill-opacity:1;stroke:none;stroke-width:2;stroke-linecap:butt;stroke-linejoin:miter;stroke-miterlimit:4;stroke-dasharray:none;stroke-opacity:1" transform="translate(0 3)"/><path d="M0 57V-3h30v30h60v30z" style="opacity:1;fill:#af4b4b;fill-opacity:1;stroke:none;stroke-width:2;stroke-linecap:butt;stroke-linejoin:miter;stroke-miterlimit:4;stroke-dasharray:none;stroke-opacity:1" transform="translate(0 3)"/><path d="M-3-180h120v30H-3z" style="opacity:1;fill:#cc594e;fill-opacity:1;stroke:none;stroke-width:1.88264012;stroke-linecap:butt;stroke-linejoin:miter;stroke-miterlimit:4;stroke-dasharray:none;stroke-opacity:1" transform="rotate(90 -1.5 1.5)"/><path d="M-270-147h120v30h-120z" style="opacity:1;fill:#cc714e;fill-opacity:1;stroke:none;stroke-width:1.88264012;stroke-linecap:butt;stroke-linejoin:miter;stroke-miterlimit:4;stroke-dasharray:none;stroke-opacity:1" transform="rotate(180 0 1.5)"/><path d="M300 147h60v-30h-30V57h-30z" style="opacity:1;fill:#c8794c;fill-opacity:1;stroke:none;stroke-width:2;stroke-linecap:butt;stroke-linejoin:miter;stroke-miterlimit:4;stroke-dasharray:none;stroke-opacity:1" transform="translate(0 3)"/><path d="M420 147h-62v-30h32V57h30z" style="opacity:1;fill:#cb7d2f;fill-opacity:1;stroke:none;stroke-width:2;stroke-linecap:butt;stroke-linejoin:miter;stroke-miterlimit:4;stroke-dasharray:none;stroke-opacity:1" transform="translate(0 3)"/></svg>