<svg xmlns="http://www.w3.org/2000/svg" xmlns:xlink="http://www.w3.org/1999/xlink" width="510mm" height="180mm" viewBox="0 0 510 180"><defs><linearGradient id="a"><stop offset="0" style="stop-color:#000;stop-opacity:.976834"/><stop offset="1" style="stop-color:#000;stop-opacity:.45945945"/></linearGradient><linearGradient xlink:href="#a" id="b" x1="71.437492" x2="347.33957" y1="-1.3708359" y2="178.01666" gradientUnits="userSpaceOnUse"/></defs><path d="M30 57 0 27 90-3l60 60-14.004-42.983L210-3l42.15 42.15 8.2-24.604L330-3l180 180H60L0 117Z" style="opacity:.21400003;fill:url(#b);fill-opacity:1;stroke:none;stroke-width:1.32291663;stroke-linecap:butt;stroke-linejoin:miter;stroke-miterlimit:4;stroke-dasharray:none;stroke-opacity:1" transform="translate(0 3)"/><path d="M90-3v60H60V27H0V-3Z" style="opacity:1;fill:#ca268f;fill-opacity:1;stroke:none;stroke-width:2;stroke-linecap:butt;stroke-linejoin:miter;stroke-miterlimit:4;stroke-dasharray:none;stroke-opacity:1" transform="translate(0 3)"/><path d="M120 117h120v30H120z" style="opacity:1;fill:#9849d0;fill-opacity:1;stroke:none;stroke-width:1.88264012;stroke-linecap:butt;stroke-linejoin:miter;stroke-miterlimit:4;stroke-dasharray:none;stroke-opacity:1" transform="translate(0 3)"/><path d="M240-3h60v30h-30v60h-30z" style="opacity:1;fill:#8b56df;fill-opacity:1;stroke:none;stroke-width:2;stroke-linecap:butt;stroke-linejoin:miter;stroke-miterlimit:4;stroke-dasharray:none;stroke-opacity:1" transform="translate(0 3)"/><path d="M-117 300H3v30h-120z" style="opacity:1;fill:#6e56e4;fill-opacity:1;stroke:none;stroke-width:1.88264012;stroke-linecap:butt;stroke-linejoin:miter;stroke-miterlimit:4;stroke-dasharray:none;stroke-opacity:1" transform="rotate(-90 1.5 1.5)"/><path d="M0 117V57h30v30h60v30z" style="opacity:1;fill:#d355ab;fill-opacity:1;stroke:none;stroke-width:2;stroke-linecap:butt;stroke-linejoin:miter;stroke-miterlimit:4;stroke-dasharray:none;stroke-opacity:1" transform="translate(0 3)"/><path d="M120-3v60h30V27h60V-3Z" style="opacity:1;fill:#c142e5;fill-opacity:1;stroke:none;stroke-width:2;stroke-linecap:butt;stroke-linejoin:miter;stroke-miterlimit:4;stroke-dasharray:none;stroke-opacity:1" transform="translate(0 3)"/><path d="M120 57v60h30V87h60V57Z" style="opacity:1;fill:#a159e8;fill-opacity:1;stroke:none;stroke-width:2;stroke-linecap:butt;stroke-linejoin:miter;stroke-miterlimit:4;stroke-dasharray:none;stroke-opacity:1" transform="translate(0 3)"/></svg>